<?xml version="1.0" standalone="no"?>
<!DOCTYPE svg PUBLIC "-//W3C//DTD SVG 20010904//EN"
 "http://www.w3.org/TR/2001/REC-SVG-20010904/DTD/svg10.dtd">
<svg version="1.0" xmlns="http://www.w3.org/2000/svg"
 width="1024.000000pt" height="1024.000000pt" viewBox="0 0 1024.000000 1024.000000"
 preserveAspectRatio="xMidYMid meet">

<g transform="translate(0.000000,1024.000000) scale(0.100000,-0.100000)"
fill="#000000" stroke="none">
<path d="M5167 8141 c-6 -26 -1657 -4114 -1676 -4149 -5 -9 -57 108 -143 324
-74 187 -449 1125 -833 2087 l-698 1747 -498 0 -498 0 13 -32 c8 -18 602
-1475 1321 -3238 719 -1763 1308 -3206 1310 -3208 1 -1 379 901 840 2005 461
1105 844 2019 851 2033 11 21 13 -306 14 -1912 l0 -1938 475 0 475 0 0 1290 0
1291 87 -3 88 -3 899 -1288 898 -1287 579 0 c318 0 579 2 579 5 0 3 -437 606
-970 1341 -534 734 -968 1339 -965 1344 3 4 22 11 42 15 21 4 88 23 148 42
607 194 1053 713 1165 1355 27 154 37 403 21 560 -43 444 -215 808 -517 1099
-263 252 -584 398 -1059 483 -291 53 -403 58 -1201 63 l-741 5 -6 -31z m1733
-900 c284 -52 470 -134 614 -270 114 -109 182 -226 227 -391 21 -76 24 -106
23 -280 0 -179 -3 -203 -27 -295 -112 -420 -436 -650 -1007 -715 -52 -6 -211
-13 -352 -17 l-258 -6 0 1003 0 1002 333 -5 c279 -4 350 -9 447 -26z"/>
</g>
</svg>
